<svg width="178px" height="56px" viewBox="0 0 178 56" version="1.1" xmlns="http://www.w3.org/2000/svg" xmlns:xlink="http://www.w3.org/1999/xlink">
    <g id="Page---Contact" stroke="none" stroke-width="1" fill="none" fill-rule="evenodd">
        <g id="content_contact_social-copy-3" transform="translate(-244.000000, -72.000000)" stroke-width="0.5">
            <g id="Group-20" transform="translate(245.000000, 73.000000)">
                <path d="M29.798074,35.5026685 C29.7245136,35.2719638 29.5545756,35.0846015 29.3321917,34.9890433 L21.2334009,31.5155038 L29.336619,24.7677319 C29.5269904,24.6093784 29.637331,24.3738957 29.637331,24.1257858 L29.637331,0.834505603 C29.637331,0.510631662 29.4503651,0.21610773 29.1578264,0.0785722205 C28.8669906,-0.0582807304 28.5209845,-0.0139144371 28.2720372,0.192559466 L0.300712008,23.485546 C0.110340533,23.6442408 0,23.8793822 0,24.1274922 L0,47.7225108 C0,48.0006533 0.138266224,48.260708 0.368482891,48.4153075 C0.598699559,48.5705895 0.891238195,48.5999395 1.14801832,48.4948256 L17.5414203,41.7740147 L17.5414203,53.1655724 C17.5414203,53.5392731 17.789346,53.8672424 18.1486338,53.9686023 C18.2232158,53.9897616 18.2991601,54 18.3740827,54 C18.6587885,54 18.9305531,53.85325 19.0848255,53.6010446 L29.714978,36.1920524 C29.8413247,35.9852372 29.8712938,35.7340558 29.798074,35.5026685 L29.798074,35.5026685 Z M20.0802742,47.0959222 L20.0802742,33.8058284 L26.517827,36.5531258 L20.0802742,47.0959222 L20.0802742,47.0959222 Z M16.4179221,32.2171738 L2.53885393,43.7749345 L2.53885393,26.2615109 L16.4179221,32.2171738 L16.4179221,32.2171738 Z M17.5414203,34.590088 L17.5414203,39.0256934 L7.0491935,43.3282001 L17.5414203,34.590088 L17.5414203,34.590088 Z M27.098477,4.47800212 L27.098477,23.3230971 L18.6111105,30.3903064 L3.6769961,23.9821072 L27.098477,4.47800212 L27.098477,4.47800212 Z" id="Fill-19" stroke="#FFFFFF" fill="#FFFFFF"></path>
                <g id="Logo" transform="translate(40.000000, 18.000000)" stroke="#2A2C31" fill="#2A2C31">
                    <path d="M6.76770143,18.1958742 L2.35919836,18.1958742 C1.4353456,18.1958742 0.692768916,17.4509937 0.692768916,16.5262767 L0.692768916,2.73212579 C0.692768916,1.80704403 1.4353456,1.06216352 2.35919836,1.06216352 L6.76770143,1.06216352 C12.0993292,1.06216352 15.6116442,4.70996226 15.6116442,9.64215094 C15.6116442,14.5998742 12.0993292,18.1958742 6.76770143,18.1958742 L6.76770143,18.1958742 Z M6.76770143,3.32306918 L3.22990593,3.32306918 L3.22990593,15.9356981 L6.76770143,15.9356981 C10.7157342,15.9356981 13.022454,13.1097484 13.022454,9.64215094 C13.022454,6.12238994 10.8176564,3.32306918 6.76770143,3.32306918 L6.76770143,3.32306918 Z" id="Fill-1"></path>
                    <path d="M20.6633497,18.3501761 C19.9706421,18.3501761 19.4071575,17.7847673 19.4071575,17.0913208 L19.4071575,2.14081761 C19.4071575,1.47327044 19.9706421,0.908226415 20.7146748,0.908226415 C21.3808098,0.908226415 21.9442945,1.47327044 21.9442945,2.14081761 L21.9442945,17.0913208 C21.9442945,17.7847673 21.3808098,18.3501761 20.6633497,18.3501761" id="Fill-2"></path>
                    <path d="M34.5568139,18.5296478 C29.6346953,18.5296478 25.662274,14.9854465 25.662274,9.64215094 C25.662274,4.29849057 29.6346953,0.779823899 34.5568139,0.779823899 C37.1718487,0.779823899 39.1189284,1.78150943 40.478135,3.16913208 C40.7089162,3.37377358 40.7853579,3.70827673 40.7853579,3.99061635 C40.7853579,4.63262893 40.2735624,5.17250314 39.63218,5.17250314 C39.3249571,5.17250314 39.0177342,5.04373585 38.786589,4.7872956 C37.7349693,3.70827673 36.1460736,3.04 34.5568139,3.04 C30.9684213,3.04 28.3020613,5.78861635 28.3020613,9.64215094 C28.3020613,13.4694214 30.9684213,16.2698365 34.5568139,16.2698365 C36.4540245,16.2698365 38.0687648,15.3447547 38.8888753,14.5484403 L38.8888753,11.4401509 L34.3260327,11.4401509 C33.7112229,11.4401509 33.223816,10.9520755 33.223816,10.3096981 C33.223816,9.69358491 33.7112229,9.20514465 34.3260327,9.20514465 L39.7351943,9.20514465 C40.657227,9.20514465 41.4267403,9.95002516 41.4267403,10.8747421 L41.4267403,14.1369686 C41.4267403,16.9114843 37.6836442,18.5296478 34.5568139,18.5296478" id="Fill-3"></path>
                    <path d="M46.6327853,18.3501761 C45.9408057,18.3501761 45.376593,17.7847673 45.376593,17.0913208 L45.376593,2.14081761 C45.376593,1.47327044 45.9408057,0.908226415 46.6841104,0.908226415 C47.3502454,0.908226415 47.9144581,1.47327044 47.9144581,2.14081761 L47.9144581,17.0913208 C47.9144581,17.7847673 47.3502454,18.3501761 46.6327853,18.3501761" id="Fill-4"></path>
                    <path d="M58.0400736,18.5048428 C55.5276892,18.5048428 53.2464499,17.6567296 51.913816,16.3464403 C51.7081513,16.1155346 51.605865,15.8328302 51.605865,15.5504906 C51.605865,14.9077484 52.093272,14.292 52.7845235,14.292 C53.0156687,14.292 53.2977751,14.3686038 53.5030757,14.5225409 C54.6817342,15.5245912 56.2717219,16.2698365 58.1423599,16.2698365 C60.9110061,16.2698365 61.885456,14.8056101 61.885456,13.5978239 C61.885456,9.5396478 51.8366462,11.8771572 51.8366462,5.68611321 C51.8366462,2.86016352 54.3486667,0.804993711 57.8864622,0.804993711 C60.013726,0.804993711 62.1926789,1.47327044 63.4743517,2.65479245 C63.7051329,2.86016352 63.8074192,3.16913208 63.8074192,3.45110692 C63.8074192,4.0931195 63.2442986,4.63262893 62.6029162,4.63262893 C62.372135,4.63262893 62.1162372,4.55602516 61.9102086,4.40172327 C60.6543804,3.47700629 59.167407,3.04 57.6811616,3.04 C55.7584703,3.04 54.450953,4.04205031 54.450953,5.50664151 C54.450953,9.05084277 64.5001268,6.94496855 64.5001268,13.3413836 C64.5001268,16.0126667 62.6546053,18.5048428 58.0400736,18.5048428" id="Fill-5"></path>
                    <path d="M78.9851043,3.32306918 L74.6271984,3.32306918 L74.6271984,17.0913208 C74.6271984,17.7847673 74.0633497,18.3501761 73.3455256,18.3501761 C72.653546,18.3501761 72.0889693,17.7847673 72.0889693,17.0913208 L72.0889693,3.32306918 L67.7310634,3.32306918 C67.1166176,3.32306918 66.6295746,2.80872956 66.6295746,2.16671698 C66.6295746,1.54987421 67.1166176,1.06216352 67.7310634,1.06216352 L78.9851043,1.06216352 C79.5995501,1.06216352 80.0873211,1.54987421 80.0873211,2.21851572 C80.0873211,2.80872956 79.5995501,3.32306918 78.9851043,3.32306918" id="Fill-6"></path>
                    <path d="M90.4710184,18.5048428 C85.3698078,18.5048428 81.8578569,14.7282767 81.8578569,9.64215094 C81.8578569,4.55602516 85.3698078,0.779823899 90.4710184,0.779823899 C95.5463845,0.779823899 99.0834519,4.55602516 99.0834519,9.64215094 C99.0834519,14.7282767 95.5463845,18.5048428 90.4710184,18.5048428 L90.4710184,18.5048428 Z M90.4710184,3.04 C86.805092,3.04 84.4983722,5.84041509 84.4983722,9.64215094 C84.4983722,13.4179874 86.805092,16.2439371 90.4710184,16.2439371 C94.1111002,16.2439371 96.4691452,13.4179874 96.4691452,9.64215094 C96.4691452,5.84041509 94.1111002,3.04 90.4710184,3.04 L90.4710184,3.04 Z" id="Fill-7"></path>
                    <path d="M135.257857,18.3501761 C134.540033,18.3501761 133.975456,17.7847673 133.975456,17.0913208 L133.975456,4.65816352 L128.541178,17.939434 C128.438892,18.1703396 128.20811,18.3501761 127.875043,18.3501761 C127.619145,18.3501761 127.362519,18.1703396 127.260233,17.939434 L121.851072,4.65816352 L121.851072,17.0913208 C121.851072,17.7847673 121.286859,18.3501761 120.569399,18.3501761 C119.877419,18.3501761 119.313207,17.7847673 119.313207,17.0913208 L119.313207,2.78355975 C119.313207,1.80704403 120.133317,0.959660377 121.159092,0.959660377 C122.106969,0.908226415 123.030458,1.31933333 123.38937,2.21851572 L127.900888,13.2640503 L132.437885,2.21851572 C132.745836,1.44773585 133.514258,0.959660377 134.334368,0.959660377 C135.48791,0.908226415 136.538802,1.65310692 136.538802,2.78355975 L136.538802,17.0913208 C136.538802,17.7847673 135.975681,18.3501761 135.257857,18.3501761" id="Fill-8"></path>
                    <path d="M111.236957,11.3376478 C113.441755,11.0545786 115.491849,9.38498113 115.491849,6.32812579 C115.491849,3.1432327 113.262299,1.06216352 110.031726,1.06216352 L104.520278,1.06216352 C103.598245,1.06216352 102.854213,1.80704403 102.854213,2.73212579 L102.854213,17.0913208 C102.854213,17.7847673 103.418789,18.3501761 104.110041,18.3501761 C104.827865,18.3501761 105.392442,17.7847673 105.392442,17.0913208 L105.392442,3.32306918 L109.698658,3.32306918 C111.569661,3.32306918 112.876814,4.53012579 112.876814,6.32812579 C112.876814,8.12612579 111.569661,9.35981132 109.698658,9.35981132 L108.967366,9.35981132 L108.967366,9.36710692 C108.592074,9.37987421 108.238986,9.60238994 108.081734,9.97154717 C107.937223,10.3100629 107.99692,10.6814088 108.200037,10.9571824 L108.191301,10.9586415 L112.44146,17.7595975 C112.672605,18.1451698 113.05627,18.3501761 113.466507,18.3501761 C114.210176,18.3501761 114.722699,17.7340629 114.722699,17.1172201 C114.722699,16.9114843 114.671374,16.7061132 114.543243,16.4752075 L111.236957,11.3376478" id="Fill-9"></path>
                </g>
            </g>
        </g>
    </g>
</svg>