<?xml version="1.0" encoding="UTF-8" standalone="yes"?>
<svg xmlns="http://www.w3.org/2000/svg" viewBox="0 0 80 80" width="80" height="80" fill="#000000">
  <path d="M 40.033203 10.25 A 1.0001 1.0001 0 0 0 39.580078 10.341797 L 5.5800781 26.091797 A 1.0001 1.0001 0 0 0 5.5800781 27.908203 L 17.650391 33.5 L 5.5800781 39.091797 A 1.0001 1.0001 0 0 0 5.5800781 40.908203 L 17.650391 46.5 L 5.5800781 52.091797 A 1.0001 1.0001 0 0 0 5.5800781 53.908203 L 39.580078 69.658203 A 1.0001 1.0001 0 0 0 40.419922 69.658203 L 74.419922 53.908203 A 1.0001 1.0001 0 0 0 74.419922 52.091797 L 62.349609 46.5 L 74.419922 40.908203 A 1.0001 1.0001 0 0 0 74.419922 39.091797 L 62.349609 33.5 L 74.419922 27.908203 A 1.0001 1.0001 0 0 0 74.419922 26.091797 L 40.419922 10.341797 A 1.0001 1.0001 0 0 0 40.033203 10.25 z M 40 12.351562 L 71.619141 27 L 59.517578 32.607422 L 40 41.648438 L 20.591797 32.65625 A 1.0001 1.0001 0 0 0 20.339844 32.539062 L 8.3808594 27 L 40 12.351562 z M 20.03125 34.603516 L 21.369141 35.222656 A 1 1 0 0 0 21 36 A 1 1 0 0 0 22 37 A 1 1 0 0 0 23 36 A 1 1 0 0 0 22.998047 35.978516 L 30.029297 39.234375 A 1 1 0 0 0 31 40 A 1 1 0 0 0 31.449219 39.892578 L 33.863281 41.011719 A 1 1 0 0 0 33 42 A 1 1 0 0 0 34 43 A 1 1 0 0 0 35 42 A 1 1 0 0 0 34.84375 41.464844 L 39.580078 43.658203 A 1.0001 1.0001 0 0 0 40.419922 43.658203 L 45.154297 41.464844 A 1 1 0 0 0 45 42 A 1 1 0 0 0 46 43 A 1 1 0 0 0 47 42 A 1 1 0 0 0 46.138672 41.009766 L 48.550781 39.892578 A 1 1 0 0 0 49 40 A 1 1 0 0 0 49.970703 39.234375 L 57 35.978516 A 1 1 0 0 0 57 36 A 1 1 0 0 0 58 37 A 1 1 0 0 0 59 36 A 1 1 0 0 0 58.628906 35.224609 L 59.96875 34.603516 L 63 36.007812 A 1 1 0 0 0 64 37 A 1 1 0 0 0 64.640625 36.767578 L 71.619141 40 L 61.873047 44.515625 A 1 1 0 0 0 61 44 A 1 1 0 0 0 60 45 A 1 1 0 0 0 60.066406 45.353516 L 59.517578 45.607422 L 52.550781 48.833984 A 1 1 0 0 0 53 48 A 1 1 0 0 0 52 47 A 1 1 0 0 0 51 48 A 1 1 0 0 0 52 49 A 1 1 0 0 0 52.283203 48.958984 L 49.599609 50.201172 A 1 1 0 0 0 49 50 A 1 1 0 0 0 48.001953 50.941406 L 40.980469 54.193359 A 1 1 0 0 0 41 54 A 1 1 0 0 0 40 53 A 1 1 0 0 0 39 54 A 1 1 0 0 0 39.019531 54.193359 L 31.996094 50.939453 A 1 1 0 0 0 31 50 A 1 1 0 0 0 30.400391 50.201172 L 27.71875 48.958984 A 1 1 0 0 0 28 49 A 1 1 0 0 0 29 48 A 1 1 0 0 0 28 47 A 1 1 0 0 0 27 48 A 1 1 0 0 0 27.445312 48.832031 L 20.591797 45.65625 A 1.0001 1.0001 0 0 0 20.339844 45.539062 L 19.935547 45.351562 A 1 1 0 0 0 20 45 A 1 1 0 0 0 19 44 A 1 1 0 0 0 18.126953 44.513672 L 8.3808594 40 L 15.361328 36.767578 A 1 1 0 0 0 16 37 A 1 1 0 0 0 17 36.007812 L 20.03125 34.603516 z M 13 38 A 1 1 0 0 0 12 39 A 1 1 0 0 0 13 40 A 1 1 0 0 0 14 39 A 1 1 0 0 0 13 38 z M 19 38 A 1 1 0 0 0 18 39 A 1 1 0 0 0 19 40 A 1 1 0 0 0 20 39 A 1 1 0 0 0 19 38 z M 25 38 A 1 1 0 0 0 24 39 A 1 1 0 0 0 25 40 A 1 1 0 0 0 26 39 A 1 1 0 0 0 25 38 z M 55 38 A 1 1 0 0 0 54 39 A 1 1 0 0 0 55 40 A 1 1 0 0 0 56 39 A 1 1 0 0 0 55 38 z M 61 38 A 1 1 0 0 0 60 39 A 1 1 0 0 0 61 40 A 1 1 0 0 0 62 39 A 1 1 0 0 0 61 38 z M 67 38 A 1 1 0 0 0 66 39 A 1 1 0 0 0 67 40 A 1 1 0 0 0 68 39 A 1 1 0 0 0 67 38 z M 16 41 A 1 1 0 0 0 15 42 A 1 1 0 0 0 16 43 A 1 1 0 0 0 17 42 A 1 1 0 0 0 16 41 z M 22 41 A 1 1 0 0 0 21 42 A 1 1 0 0 0 22 43 A 1 1 0 0 0 23 42 A 1 1 0 0 0 22 41 z M 28 41 A 1 1 0 0 0 27 42 A 1 1 0 0 0 28 43 A 1 1 0 0 0 29 42 A 1 1 0 0 0 28 41 z M 52 41 A 1 1 0 0 0 51 42 A 1 1 0 0 0 52 43 A 1 1 0 0 0 53 42 A 1 1 0 0 0 52 41 z M 58 41 A 1 1 0 0 0 57 42 A 1 1 0 0 0 58 43 A 1 1 0 0 0 59 42 A 1 1 0 0 0 58 41 z M 64 41 A 1 1 0 0 0 63 42 A 1 1 0 0 0 64 43 A 1 1 0 0 0 65 42 A 1 1 0 0 0 64 41 z M 25 44 A 1 1 0 0 0 24 45 A 1 1 0 0 0 25 46 A 1 1 0 0 0 26 45 A 1 1 0 0 0 25 44 z M 31 44 A 1 1 0 0 0 30 45 A 1 1 0 0 0 31 46 A 1 1 0 0 0 32 45 A 1 1 0 0 0 31 44 z M 37 44 A 1 1 0 0 0 36 45 A 1 1 0 0 0 37 46 A 1 1 0 0 0 38 45 A 1 1 0 0 0 37 44 z M 43 44 A 1 1 0 0 0 42 45 A 1 1 0 0 0 43 46 A 1 1 0 0 0 44 45 A 1 1 0 0 0 43 44 z M 49 44 A 1 1 0 0 0 48 45 A 1 1 0 0 0 49 46 A 1 1 0 0 0 50 45 A 1 1 0 0 0 49 44 z M 55 44 A 1 1 0 0 0 54 45 A 1 1 0 0 0 55 46 A 1 1 0 0 0 56 45 A 1 1 0 0 0 55 44 z M 34 47 A 1 1 0 0 0 33 48 A 1 1 0 0 0 34 49 A 1 1 0 0 0 35 48 A 1 1 0 0 0 34 47 z M 40 47 A 1 1 0 0 0 39 48 A 1 1 0 0 0 40 49 A 1 1 0 0 0 41 48 A 1 1 0 0 0 40 47 z M 46 47 A 1 1 0 0 0 45 48 A 1 1 0 0 0 46 49 A 1 1 0 0 0 47 48 A 1 1 0 0 0 46 47 z M 20.03125 47.603516 L 39.580078 56.658203 A 1.0001 1.0001 0 0 0 40.419922 56.658203 L 59.96875 47.603516 L 71.619141 53 L 40 67.648438 L 8.3808594 53 L 20.03125 47.603516 z M 37 50 A 1 1 0 0 0 36 51 A 1 1 0 0 0 37 52 A 1 1 0 0 0 38 51 A 1 1 0 0 0 37 50 z M 43 50 A 1 1 0 0 0 42 51 A 1 1 0 0 0 43 52 A 1 1 0 0 0 44 51 A 1 1 0 0 0 43 50 z"/>
</svg>
